<svg xmlns="http://www.w3.org/2000/svg" style="display: none;">
  <symbol id="the-cheat-logo" xml:space="preserve" viewBox="0 0 123 50">
    <path d="M5.694 19H9.074V3.92H14.144V0.799999H0.624V3.92H5.694V19ZM16.5973 19H19.8213V13.462C19.8213 9.926 21.4073 8.444 22.8893 8.444C24.2153 8.444 24.8393 9.198 24.8393 10.784V19H28.0633V9.64C28.0633 6.962 26.4513 5.688 23.9813 5.688C22.0833 5.688 20.6533 6.676 19.8213 8.002V0.592H16.5973V19ZM37.2688 19.208C40.4408 19.208 42.2088 17.7 43.2228 15.386L40.6228 14.424C39.8428 15.776 38.9328 16.452 37.4508 16.452C35.4488 16.452 34.4348 14.944 34.3568 13.488H43.3788V12.162C43.3788 9.302 41.6368 5.688 37.2688 5.688C32.7708 5.688 30.9768 9.354 30.9768 12.448C30.9768 15.542 32.7708 19.208 37.2688 19.208ZM34.4348 10.94C34.6688 9.692 35.6308 8.444 37.2688 8.444C38.9848 8.444 39.7908 9.64 40.0768 10.94H34.4348ZM60.7102 19.208C64.6622 19.208 67.3922 17.18 68.2502 13.696L65.2082 12.916C64.5062 14.762 63.2322 16.088 60.7102 16.088C57.9022 16.088 55.5362 14.112 55.5362 9.9C55.5362 5.688 57.9022 3.712 60.7102 3.712C63.2322 3.712 64.5062 5.038 65.2082 6.884L68.2502 6.104C67.3922 2.62 64.6622 0.592 60.7102 0.592C56.1602 0.592 52.1042 3.816 52.1042 9.9C52.1042 15.984 56.1602 19.208 60.7102 19.208ZM71.1618 19H74.3858V13.462C74.3858 9.926 75.9718 8.444 77.4538 8.444C78.7798 8.444 79.4038 9.198 79.4038 10.784V19H82.6278V9.64C82.6278 6.962 81.0158 5.688 78.5458 5.688C76.6478 5.688 75.2178 6.676 74.3858 8.002V0.592H71.1618V19ZM91.8332 19.208C95.0052 19.208 96.7732 17.7 97.7872 15.386L95.1872 14.424C94.4072 15.776 93.4972 16.452 92.0152 16.452C90.0132 16.452 88.9992 14.944 88.9212 13.488H97.9432V12.162C97.9432 9.302 96.2012 5.688 91.8332 5.688C87.3352 5.688 85.5412 9.354 85.5412 12.448C85.5412 15.542 87.3352 19.208 91.8332 19.208ZM88.9992 10.94C89.2332 9.692 90.1952 8.444 91.8332 8.444C93.5492 8.444 94.3552 9.64 94.6412 10.94H88.9992ZM104.044 19.208C105.916 19.208 107.164 18.454 108.074 17.336L108.412 19H111.064V11.174C111.064 7.508 109.01 5.688 105.552 5.688C102.926 5.688 100.976 7.17 100.56 9.328L103.29 9.952C103.706 8.86 104.512 8.444 105.552 8.444C106.748 8.444 107.84 8.99 107.84 10.368V10.94H105.552C102.198 10.94 100.066 12.63 100.066 15.23C100.066 17.83 101.808 19.208 104.044 19.208ZM104.902 16.452C104.044 16.452 103.446 15.932 103.446 15.178C103.446 14.008 104.304 13.488 105.682 13.488H107.84V13.748C107.84 15.438 106.358 16.452 104.902 16.452ZM119.705 19.208C120.407 19.208 121.109 19.078 121.837 18.74L121.083 16.14C120.641 16.374 120.277 16.452 119.835 16.452C118.743 16.452 118.119 15.932 118.119 14.32V8.652H121.577V5.896H118.119V0.592L114.895 2.62V5.896H112.867V8.652H114.895V14.372C114.895 17.622 116.741 19.208 119.705 19.208Z" fill="#111827"/>
    <path d="M7.098 49.208C10.504 49.208 12.922 47.102 12.922 43.774C12.922 40.706 10.92 39.484 8.788 38.496C6.916 37.638 5.148 36.884 5.148 35.376C5.148 34.414 6.006 33.712 6.994 33.712C8.06 33.712 8.918 34.206 9.412 35.636L12.142 33.894C11.258 31.788 9.568 30.592 6.994 30.592C3.978 30.592 1.924 32.724 1.924 35.48C1.924 38.184 3.588 39.588 5.356 40.472C7.488 41.538 9.542 42.318 9.542 43.93C9.542 45.464 8.528 46.088 7.176 46.088C5.174 46.088 4.082 44.424 3.562 42.396L0.832 44.112C1.404 46.894 3.796 49.208 7.098 49.208ZM22.6525 49H26.0325V40.836H33.3125V49H36.6925V30.8H33.3125V37.716H26.0325V30.8H22.6525V49ZM47.6176 49H59.1356V45.88H50.9976V40.862H57.3156V37.742H50.9976V33.92H58.8756V30.8H47.6176V49ZM69.1803 49H80.6983V45.88H72.5603V40.862H78.8783V37.742H72.5603V33.92H80.4383V30.8H69.1803V49ZM94.4586 49H97.8386V33.92H102.909V30.8H89.3886V33.92H94.4586V49ZM117.095 49.208C120.501 49.208 122.919 47.102 122.919 43.774C122.919 40.706 120.917 39.484 118.785 38.496C116.913 37.638 115.145 36.884 115.145 35.376C115.145 34.414 116.003 33.712 116.991 33.712C118.057 33.712 118.915 34.206 119.409 35.636L122.139 33.894C121.255 31.788 119.565 30.592 116.991 30.592C113.975 30.592 111.921 32.724 111.921 35.48C111.921 38.184 113.585 39.588 115.353 40.472C117.485 41.538 119.539 42.318 119.539 43.93C119.539 45.464 118.525 46.088 117.173 46.088C115.171 46.088 114.079 44.424 113.559 42.396L110.829 44.112C111.401 46.894 113.793 49.208 117.095 49.208Z" fill="#465FE5"/>
  </symbol>
  <symbol id="trash" fill="none" viewBox="0 0 24 24" stroke="currentColor">
    <path stroke-linecap="round" stroke-linejoin="round" stroke-width="2" d="M19 7l-.867 12.142A2 2 0 0116.138 21H7.862a2 2 0 01-1.995-1.858L5 7m5 4v6m4-6v6m1-10V4a1 1 0 00-1-1h-4a1 1 0 00-1 1v3M4 7h16" />
  </symbol>

  <symbol id="chevron-up" fill="none" viewBox="0 0 24 24" stroke="currentColor">
    <path stroke-linecap="round" stroke-linejoin="round" stroke-width="2" d="M5 15l7-7 7 7" />
  </symbol>
  <symbol id="chevron-right" fill="none" viewBox="0 0 24 24" stroke="currentColor">
    <path stroke-linecap="round" stroke-linejoin="round" stroke-width="2" d="M9 5l7 7-7 7" />
  </symbol>
  <symbol id="star" fill="none" viewBox="0 0 24 24" stroke="currentColor">
    <path stroke-linecap="round" stroke-linejoin="round" stroke-width="2" d="M11.049 2.927c.3-.921 1.603-.921 1.902 0l1.519 4.674a1 1 0 00.95.69h4.915c.969 0 1.371 1.24.588 1.81l-3.976 2.888a1 1 0 00-.363 1.118l1.518 4.674c.3.922-.755 1.688-1.538 1.118l-3.976-2.888a1 1 0 00-1.176 0l-3.976 2.888c-.783.57-1.838-.197-1.538-1.118l1.518-4.674a1 1 0 00-.363-1.118l-3.976-2.888c-.784-.57-.38-1.81.588-1.81h4.914a1 1 0 00.951-.69l1.519-4.674z" />
  </symbol>
  <symbol id="solid-star" viewBox="0 0 20 20" fill="currentColor">
    <path d="M9.049 2.927c.3-.921 1.603-.921 1.902 0l1.07 3.292a1 1 0 00.95.69h3.462c.969 0 1.371 1.24.588 1.81l-2.8 2.034a1 1 0 00-.364 1.118l1.07 3.292c.3.921-.755 1.688-1.54 1.118l-2.8-2.034a1 1 0 00-1.175 0l-2.8 2.034c-.784.57-1.838-.197-1.539-1.118l1.07-3.292a1 1 0 00-.364-1.118L2.98 8.72c-.783-.57-.38-1.81.588-1.81h3.461a1 1 0 00.951-.69l1.07-3.292z" />
  </symbol>
  <symbol id="chevron-down" fill="none" viewBox="0 0 24 24" stroke="currentColor">
    <path stroke-linecap="round" stroke-linejoin="round" stroke-width="2" d="M19 9l-7 7-7-7" />
  </symbol>
  <symbol id="preview-a4" viewBox="0 0 24 24">
    <path d="M11.362 2c4.156 0 2.638 6 2.638 6s6-1.65 6 2.457v11.543h-16v-20h7.362zm.827-2h-10.189v24h20v-14.386c0-2.391-6.648-9.614-9.811-9.614z"/>
  </symbol>
  <symbol id="bx:bx-moon" viewBox="0 0 24 24">
    <rect x="0" y="0" width="24" height="24" fill="none" stroke="none" />
    <path d="M20.742 13.045a8.088 8.088 0 0 1-2.077.271c-2.135 0-4.14-.83-5.646-2.336a8.025 8.025 0 0 1-2.064-7.723A1 1 0 0 0 9.73 2.034a10.014 10.014 0 0 0-4.489 2.582c-3.898 3.898-3.898 10.243 0 14.143a9.937 9.937 0 0 0 7.072 2.93a9.93 9.93 0 0 0 7.07-2.929a10.007 10.007 0 0 0 2.583-4.491a1.001 1.001 0 0 0-1.224-1.224zm-2.772 4.301a7.947 7.947 0 0 1-5.656 2.343a7.953 7.953 0 0 1-5.658-2.344c-3.118-3.119-3.118-8.195 0-11.314a7.923 7.923 0 0 1 2.06-1.483a10.027 10.027 0 0 0 2.89 7.848a9.972 9.972 0 0 0 7.848 2.891a8.036 8.036 0 0 1-1.484 2.059z" fill="currentColor"/>
  </symbol>
  <symbol id="bx:bxs-moon" viewBox="0 0 24 24">
    <rect x="0" y="0" width="24" height="24" fill="none" stroke="none" />
    <path d="M12 11.807A9.002 9.002 0 0 1 10.049 2a9.942 9.942 0 0 0-5.12 2.735c-3.905 3.905-3.905 10.237 0 14.142c3.906 3.906 10.237 3.905 14.143 0a9.946 9.946 0 0 0 2.735-5.119A9.003 9.003 0 0 1 12 11.807z" fill="currentColor"/>
  </symbol>
  <symbol id="akar-icons:github-fill" viewBox="0 0 24 24">
    <rect x="0" y="0" width="24" height="24" fill="none" stroke="none" />
    <g fill="none">
      <path fill-rule="evenodd" clip-rule="evenodd" d="M12 0C5.37 0 0 5.37 0 12c0 5.31 3.435 9.795 8.205 11.385c.6.105.825-.255.825-.57c0-.285-.015-1.23-.015-2.235c-3.015.555-3.795-.735-4.035-1.41c-.135-.345-.72-1.41-1.23-1.695c-.42-.225-1.02-.78-.015-.795c.945-.015 1.62.87 1.845 1.23c1.08 1.815 2.805 1.305 3.495.99c.105-.78.42-1.305.765-1.605c-2.67-.3-5.46-1.335-5.46-5.925c0-1.305.465-2.385 1.23-3.225c-.12-.3-.54-1.53.12-3.18c0 0 1.005-.315 3.3 1.23c.96-.27 1.98-.405 3-.405s2.04.135 3 .405c2.295-1.56 3.3-1.23 3.3-1.23c.66 1.65.24 2.88.12 3.18c.765.84 1.23 1.905 1.23 3.225c0 4.605-2.805 5.625-5.475 5.925c.435.375.81 1.095.81 2.22c0 1.605-.015 2.895-.015 3.3c0 .315.225.69.825.57A12.02 12.02 0 0 0 24 12c0-6.63-5.37-12-12-12z" fill="currentColor"/>
    </g>
  </symbol>
  <symbol id="bx:bx-sun" viewBox="0 0 24 24">
    <rect x="0" y="0" width="24" height="24" fill="none" stroke="none" />
    <path d="M6.993 12c0 2.761 2.246 5.007 5.007 5.007s5.007-2.246 5.007-5.007S14.761 6.993 12 6.993S6.993 9.239 6.993 12zM12 8.993c1.658 0 3.007 1.349 3.007 3.007S13.658 15.007 12 15.007S8.993 13.658 8.993 12S10.342 8.993 12 8.993zM10.998 19h2v3h-2zm0-17h2v3h-2zm-9 9h3v2h-3zm17 0h3v2h-3zM4.219 18.363l2.12-2.122l1.415 1.414l-2.12 2.122zM16.24 6.344l2.122-2.122l1.414 1.414l-2.122 2.122zM6.342 7.759L4.22 5.637l1.415-1.414l2.12 2.122zm13.434 10.605l-1.414 1.414l-2.122-2.122l1.414-1.414z" fill="currentColor"/>
  </symbol>
  <symbol id="carbon-warning" viewBox="0 0 32 32">
    <rect x="0" y="0" width="32" height="32" fill="none" stroke="none" />
    <path d="M16 2a14 14 0 1 0 14 14A14 14 0 0 0 16 2zm0 26a12 12 0 1 1 12-12a12 12 0 0 1-12 12z" fill="currentColor"/>
    <path d="M15 8h2v11h-2z" fill="currentColor"/>
    <path d="M16 22a1.5 1.5 0 1 0 1.5 1.5A1.5 1.5 0 0 0 16 22z" fill="currentColor"/>
  </symbol>
  <symbol id="ic:outline-crop-portrait" viewBox="0 0 24 24">
    <rect x="0" y="0" width="24" height="24" fill="none" stroke="none" />
    <path d="M17 3H7c-1.1 0-2 .9-2 2v14c0 1.1.9 2 2 2h10c1.1 0 2-.9 2-2V5c0-1.1-.9-2-2-2zm0 16H7V5h10v14z" fill="currentColor"/>
  </symbol>
  <symbol id="ic:baseline-crop-landscape" viewBox="0 0 24 24">
    <rect x="0" y="0" width="24" height="24" fill="none" stroke="none" />
    <path d="M19 5H5c-1.1 0-2 .9-2 2v10c0 1.1.9 2 2 2h14c1.1 0 2-.9 2-2V7c0-1.1-.9-2-2-2zm0 12H5V7h14v10z" fill="currentColor"/>
  </symbol>
  <symbol id="fa-solid:desktop" viewBox="0 0 576 512">
    <rect x="0" y="0" width="576" height="512" fill="none" stroke="none" />
    <path d="M528 0H48C21.5 0 0 21.5 0 48v320c0 26.5 21.5 48 48 48h192l-16 48h-72c-13.3 0-24 10.7-24 24s10.7 24 24 24h272c13.3 0 24-10.7 24-24s-10.7-24-24-24h-72l-16-48h192c26.5 0 48-21.5 48-48V48c0-26.5-21.5-48-48-48zm-16 352H64V64h448v288z" fill="currentColor"/>
  </symbol>
  <symbol id="ri:drag-move-2-fill" viewBox="0 0 24 24">
    <path d="M18 11V8l4 4l-4 4v-3h-5v5h3l-4 4l-4-4h3v-5H6v3l-4-4l4-4v3h5V6H8l4-4l4 4h-3v5z" fill="currentColor"/>
  </symbol>
  <symbol id="entypo:select-arrows" viewBox="0 0 20 20">
    <path d="M10 1L5 8h10l-5-7zm0 18l5-7H5l5 7z" fill="currentColor"/>
  </symbol>
  <symbol id="outline-x-circle" viewBox="0 0 24 24" stroke="currentColor">
    <path stroke-linecap="round" stroke-linejoin="round" stroke-width="2" d="M6 18L18 6M6 6l12 12" />
  </symbol>
  <symbol id="notification-success" viewBox="0 0 24 24">
    <path d="M12 2c5.514 0 10 4.486 10 10s-4.486 10-10 10-10-4.486-10-10 4.486-10 10-10zm0-2c-6.627 0-12 5.373-12 12s5.373 12 12 12 12-5.373 12-12-5.373-12-12-12zm6.25 8.891l-1.421-1.409-6.105 6.218-3.078-2.937-1.396 1.436 4.5 4.319 7.5-7.627z" />
  </symbol>
  <symbol id="notification-error" viewBox="0 0 24 24">
    <path d="M16.14 2L22 7.86v8.28L16.14 22H7.86L2 16.14V7.86L7.86 2h8.28zm.83-2H7.03L0 7.03v9.94L7.03 24h9.94L24 16.97V7.03L16.97 0zM10.5 6h3l-1 8h-1l-1-8zM12 18.25a1.25 1.25 0 110-2.5 1.25 1.25 0 010 2.5z" />
  </symbol>
  <symbol id="thumb-down" fill="none" viewBox="0 0 24 24" stroke="currentColor" stroke-width="2">
    <path stroke-linecap="round" stroke-linejoin="round" d="M10 14H5.236a2 2 0 01-1.789-2.894l3.5-7A2 2 0 018.736 3h4.018a2 2 0 01.485.06l3.76.94m-7 10v5a2 2 0 002 2h.096c.5 0 .905-.405.905-.904 0-.715.211-1.413.608-2.008L17 13V4m-7 10h2m5-10h2a2 2 0 012 2v6a2 2 0 01-2 2h-2.5" />
  </symbol>
  <symbol id="thumb-up" fill="none" viewBox="0 0 24 24" stroke="currentColor" stroke-width="2">
    <path stroke-linecap="round" stroke-linejoin="round" d="M14 10h4.764a2 2 0 011.789 2.894l-3.5 7A2 2 0 0115.263 21h-4.017c-.163 0-.326-.02-.485-.06L7 20m7-10V5a2 2 0 00-2-2h-.095c-.5 0-.905.405-.905.905 0 .714-.211 1.412-.608 2.006L7 11v9m7-10h-2M7 20H5a2 2 0 01-2-2v-6a2 2 0 012-2h2.5" />
  </symbol>
  <symbol id="eye" fill="none" viewBox="0 0 24 24" stroke="currentColor" stroke-width="2">
    <path stroke-linecap="round" stroke-linejoin="round" d="M15 12a3 3 0 11-6 0 3 3 0 016 0z" />
    <path stroke-linecap="round" stroke-linejoin="round" d="M2.458 12C3.732 7.943 7.523 5 12 5c4.478 0 8.268 2.943 9.542 7-1.274 4.057-5.064 7-9.542 7-4.477 0-8.268-2.943-9.542-7z" />
  </symbol>
</svg>
