<?xml version="1.0" encoding="UTF-8" standalone="no"?><!DOCTYPE svg PUBLIC "-//W3C//DTD SVG 1.1//EN" "http://www.w3.org/Graphics/SVG/1.1/DTD/svg11.dtd">
<svg width="100%" height="100%" viewBox="0 0 24 24" version="1.1"
  xmlns="http://www.w3.org/2000/svg"
  xmlns:xlink="http://www.w3.org/1999/xlink" xml:space="preserve"
  xmlns:serif="http://www.serif.com/" style="fill-rule:evenodd;clip-rule:evenodd;stroke-linejoin:round;stroke-miterlimit:2;">
  <path d="M9,1.575c0,-0.317 -0.258,-0.575 -0.575,-0.575l-6.85,0c-0.317,0 -0.575,0.258 -0.575,0.575l0,4.6c0,0.317 0.258,0.575 0.575,0.575l6.85,0c0.317,0 0.575,-0.258 0.575,-0.575l0,-4.6Z"/>
  <path d="M9,10.175c0,-0.235 -0.19,-0.425 -0.425,-0.425l-7.15,0c-0.235,0 -0.425,0.19 -0.425,0.425l0,3.4c0,0.235 0.19,0.425 0.425,0.425l7.15,0c0.235,0 0.425,-0.19 0.425,-0.425l0,-3.4Z"/>
  <path d="M23,17.6c0,-0.331 -0.269,-0.6 -0.6,-0.6l-4.8,0c-0.331,0 -0.6,0.269 -0.6,0.6l0,4.8c0,0.331 0.269,0.6 0.6,0.6l4.8,0c0.331,0 0.6,-0.269 0.6,-0.6l0,-4.8Z"/>
  <path d="M14,17.6c0,-0.331 -0.269,-0.6 -0.6,-0.6l-11.8,0c-0.331,0 -0.6,0.269 -0.6,0.6l0,4.8c0,0.331 0.269,0.6 0.6,0.6l11.8,0c0.331,0 0.6,-0.269 0.6,-0.6l0,-4.8Z"/>
  <path d="M23,2.1c0,-0.607 -0.493,-1.1 -1.1,-1.1l-8.8,0c-0.607,0 -1.1,0.493 -1.1,1.1l0,10.8c0,0.607 0.493,1.1 1.1,1.1l8.8,0c0.607,0 1.1,-0.493 1.1,-1.1l0,-10.8Z"/>
</svg>
