<?xml version="1.0" standalone="no"?>
<!DOCTYPE svg PUBLIC "-//W3C//DTD SVG 20010904//EN"
 "http://www.w3.org/TR/2001/REC-SVG-20010904/DTD/svg10.dtd">
<svg version="1.0" xmlns="http://www.w3.org/2000/svg"
 width="700.000000pt" height="700.000000pt" viewBox="0 0 700.000000 700.000000"
 preserveAspectRatio="xMidYMid meet">
<metadata>
Created by potrace 1.14, written by Peter Selinger 2001-2017
</metadata>
<g transform="translate(0.000000,700.000000) scale(0.100000,-0.100000)"
fill="#000000" stroke="none">
<path d="M403 6699 c-39 -11 -98 -79 -107 -121 -10 -52 -7 -1390 4 -1427 12
-42 54 -88 98 -107 28 -11 203 -14 1058 -14 1097 0 1062 -2 1117 48 52 47 51
24 52 772 1 727 0 755 -42 802 -10 12 -36 29 -59 39 -39 18 -92 19 -1065 18
-566 -1 -1038 -5 -1056 -10z"/>
<path d="M3708 6686 c-93 -38 -146 -91 -184 -184 l-23 -57 0 -1630 c0 -1549 1
-1633 18 -1683 27 -77 85 -141 166 -181 l69 -35 1336 0 c1476 1 1396 -3 1488
64 51 37 105 118 120 182 9 35 11 465 10 1675 l-3 1628 -22 47 c-30 66 -104
141 -166 169 l-52 24 -1350 2 -1350 2 -57 -23z"/>
<path d="M377 4147 c-24 -6 -45 -20 -60 -41 l-22 -31 -3 -520 c-3 -579 -3
-583 60 -620 32 -18 67 -19 1109 -19 l1075 0 32 23 c18 12 37 32 44 44 9 16
12 157 13 545 0 571 1 562 -58 606 -28 21 -29 21 -1091 21 -584 0 -1078 -3
-1099 -8z"/>
<path d="M465 2040 c-65 -7 -101 -26 -139 -73 l-31 -39 -3 -741 c-3 -804 -4
-794 51 -845 57 -54 -47 -51 1833 -51 1174 0 1752 3 1779 10 45 12 89 49 113
94 14 27 16 114 16 770 l0 741 -25 44 c-16 29 -39 53 -68 69 l-43 24 -1716 1
c-945 0 -1739 -1 -1767 -4z"/>
<path d="M5137 2043 c-1 0 -17 -3 -34 -6 -52 -8 -100 -44 -123 -92 -22 -45
-22 -47 -22 -774 0 -401 3 -739 7 -752 12 -40 54 -88 94 -108 36 -19 67 -20
771 -20 624 0 739 2 769 15 46 19 69 41 92 86 18 35 19 72 19 766 0 513 -4
740 -11 763 -15 43 -52 83 -97 105 -32 15 -104 17 -750 18 -392 0 -714 0 -715
-1z"/>
</g>
</svg>
