<svg width="123" height="50" viewBox="0 0 123 50" fill="none"
  xmlns="http://www.w3.org/2000/svg">
  <path d="M5.694 19H9.074V3.92H14.144V0.799999H0.624V3.92H5.694V19ZM16.5973 19H19.8213V13.462C19.8213 9.926 21.4073 8.444 22.8893 8.444C24.2153 8.444 24.8393 9.198 24.8393 10.784V19H28.0633V9.64C28.0633 6.962 26.4513 5.688 23.9813 5.688C22.0833 5.688 20.6533 6.676 19.8213 8.002V0.592H16.5973V19ZM37.2688 19.208C40.4408 19.208 42.2088 17.7 43.2228 15.386L40.6228 14.424C39.8428 15.776 38.9328 16.452 37.4508 16.452C35.4488 16.452 34.4348 14.944 34.3568 13.488H43.3788V12.162C43.3788 9.302 41.6368 5.688 37.2688 5.688C32.7708 5.688 30.9768 9.354 30.9768 12.448C30.9768 15.542 32.7708 19.208 37.2688 19.208ZM34.4348 10.94C34.6688 9.692 35.6308 8.444 37.2688 8.444C38.9848 8.444 39.7908 9.64 40.0768 10.94H34.4348ZM60.7102 19.208C64.6622 19.208 67.3922 17.18 68.2502 13.696L65.2082 12.916C64.5062 14.762 63.2322 16.088 60.7102 16.088C57.9022 16.088 55.5362 14.112 55.5362 9.9C55.5362 5.688 57.9022 3.712 60.7102 3.712C63.2322 3.712 64.5062 5.038 65.2082 6.884L68.2502 6.104C67.3922 2.62 64.6622 0.592 60.7102 0.592C56.1602 0.592 52.1042 3.816 52.1042 9.9C52.1042 15.984 56.1602 19.208 60.7102 19.208ZM71.1618 19H74.3858V13.462C74.3858 9.926 75.9718 8.444 77.4538 8.444C78.7798 8.444 79.4038 9.198 79.4038 10.784V19H82.6278V9.64C82.6278 6.962 81.0158 5.688 78.5458 5.688C76.6478 5.688 75.2178 6.676 74.3858 8.002V0.592H71.1618V19ZM91.8332 19.208C95.0052 19.208 96.7732 17.7 97.7872 15.386L95.1872 14.424C94.4072 15.776 93.4972 16.452 92.0152 16.452C90.0132 16.452 88.9992 14.944 88.9212 13.488H97.9432V12.162C97.9432 9.302 96.2012 5.688 91.8332 5.688C87.3352 5.688 85.5412 9.354 85.5412 12.448C85.5412 15.542 87.3352 19.208 91.8332 19.208ZM88.9992 10.94C89.2332 9.692 90.1952 8.444 91.8332 8.444C93.5492 8.444 94.3552 9.64 94.6412 10.94H88.9992ZM104.044 19.208C105.916 19.208 107.164 18.454 108.074 17.336L108.412 19H111.064V11.174C111.064 7.508 109.01 5.688 105.552 5.688C102.926 5.688 100.976 7.17 100.56 9.328L103.29 9.952C103.706 8.86 104.512 8.444 105.552 8.444C106.748 8.444 107.84 8.99 107.84 10.368V10.94H105.552C102.198 10.94 100.066 12.63 100.066 15.23C100.066 17.83 101.808 19.208 104.044 19.208ZM104.902 16.452C104.044 16.452 103.446 15.932 103.446 15.178C103.446 14.008 104.304 13.488 105.682 13.488H107.84V13.748C107.84 15.438 106.358 16.452 104.902 16.452ZM119.705 19.208C120.407 19.208 121.109 19.078 121.837 18.74L121.083 16.14C120.641 16.374 120.277 16.452 119.835 16.452C118.743 16.452 118.119 15.932 118.119 14.32V8.652H121.577V5.896H118.119V0.592L114.895 2.62V5.896H112.867V8.652H114.895V14.372C114.895 17.622 116.741 19.208 119.705 19.208Z" fill="#111827"/>
  <path d="M7.098 49.208C10.504 49.208 12.922 47.102 12.922 43.774C12.922 40.706 10.92 39.484 8.788 38.496C6.916 37.638 5.148 36.884 5.148 35.376C5.148 34.414 6.006 33.712 6.994 33.712C8.06 33.712 8.918 34.206 9.412 35.636L12.142 33.894C11.258 31.788 9.568 30.592 6.994 30.592C3.978 30.592 1.924 32.724 1.924 35.48C1.924 38.184 3.588 39.588 5.356 40.472C7.488 41.538 9.542 42.318 9.542 43.93C9.542 45.464 8.528 46.088 7.176 46.088C5.174 46.088 4.082 44.424 3.562 42.396L0.832 44.112C1.404 46.894 3.796 49.208 7.098 49.208ZM22.6525 49H26.0325V40.836H33.3125V49H36.6925V30.8H33.3125V37.716H26.0325V30.8H22.6525V49ZM47.6176 49H59.1356V45.88H50.9976V40.862H57.3156V37.742H50.9976V33.92H58.8756V30.8H47.6176V49ZM69.1803 49H80.6983V45.88H72.5603V40.862H78.8783V37.742H72.5603V33.92H80.4383V30.8H69.1803V49ZM94.4586 49H97.8386V33.92H102.909V30.8H89.3886V33.92H94.4586V49ZM117.095 49.208C120.501 49.208 122.919 47.102 122.919 43.774C122.919 40.706 120.917 39.484 118.785 38.496C116.913 37.638 115.145 36.884 115.145 35.376C115.145 34.414 116.003 33.712 116.991 33.712C118.057 33.712 118.915 34.206 119.409 35.636L122.139 33.894C121.255 31.788 119.565 30.592 116.991 30.592C113.975 30.592 111.921 32.724 111.921 35.48C111.921 38.184 113.585 39.588 115.353 40.472C117.485 41.538 119.539 42.318 119.539 43.93C119.539 45.464 118.525 46.088 117.173 46.088C115.171 46.088 114.079 44.424 113.559 42.396L110.829 44.112C111.401 46.894 113.793 49.208 117.095 49.208Z" fill="#465FE5"/>
</svg>
